<svg width="30" height="30" viewBox="0 0 30 30" fill="none" xmlns="http://www.w3.org/2000/svg">
<circle cx="15" cy="15" r="15" fill="#F4F4F4"/>
<path d="M8.52322 9.44276C8.27001 9.18955 8.27001 8.77642 8.52322 8.52322C8.77642 8.27001 9.18955 8.27001 9.44276 8.52322L15 14.0804L20.5572 8.52322C20.8104 8.27001 21.2235 8.27001 21.4767 8.52322C21.7299 8.77642 21.7299 9.20288 21.4767 9.44276L15.9195 15L21.4634 20.5572C21.7166 20.8104 21.7166 21.2235 21.4634 21.4767C21.2102 21.7299 20.7971 21.7299 20.5439 21.4767L15 15.9195L9.45608 21.4767C9.20288 21.7299 8.78975 21.7299 8.53654 21.4767C8.28334 21.2235 8.28334 20.7971 8.53654 20.5572L14.0671 15L8.52322 9.44276Z" fill="#A2AAB0"/>
</svg>
