<svg width="13" height="13" viewBox="0 0 13 13" fill="none" xmlns="http://www.w3.org/2000/svg">
<path d="M0.428036 1.2901C0.190655 1.05272 0.190655 0.665417 0.428036 0.428036C0.665417 0.190655 1.05272 0.190655 1.2901 0.428036L6.5 5.63793L11.7099 0.428036C11.9473 0.190655 12.3346 0.190655 12.572 0.428036C12.8093 0.665417 12.8093 1.06522 12.572 1.2901L7.36207 6.5L12.5595 11.7099C12.7969 11.9473 12.7969 12.3346 12.5595 12.572C12.3221 12.8093 11.9348 12.8093 11.6974 12.572L6.5 7.36207L1.3026 12.572C1.06522 12.8093 0.677911 12.8093 0.44053 12.572C0.203148 12.3346 0.203148 11.9348 0.44053 11.7099L5.62544 6.5L0.428036 1.2901Z" fill="#E4E5E7"/>
</svg>
