<svg width="19" height="20" viewBox="0 0 19 20" fill="none" xmlns="http://www.w3.org/2000/svg">
<path fill-rule="evenodd" clip-rule="evenodd" d="M5.93276 3.21352C5.87288 2.80092 5.5171 2.49585 5.09987 2.49996L5.09167 2.5H2.59211C2.35832 2.50032 2.1354 2.59883 1.97777 2.77151C1.8213 2.94292 1.74346 3.17175 1.76281 3.40286C2.02343 5.84583 2.85526 8.19323 4.19107 10.2553L4.19502 10.2614C5.40885 12.1716 7.02838 13.7912 8.93861 15.005L8.94509 15.0091C10.9975 16.3401 13.3331 17.1717 15.7647 17.4373C15.9962 17.4564 16.2254 17.378 16.3967 17.2208C16.5696 17.0622 16.6676 16.838 16.6667 16.6034L16.6667 16.6V14.1C16.6667 14.0931 16.6668 14.0862 16.6669 14.0793C16.6774 13.6573 16.3707 13.2943 15.9532 13.2339C15.0924 13.12 14.2472 12.9093 13.4337 12.6057L13.4318 12.605C13.1279 12.4908 12.7853 12.5635 12.554 12.7912L11.4976 13.8476C11.2323 14.1129 10.8225 14.1682 10.4964 13.9827C8.27974 12.7223 6.44437 10.8869 5.18393 8.67025C4.9985 8.34414 5.05382 7.93434 5.31908 7.66908L6.37547 6.61269C6.60317 6.38137 6.67588 6.03882 6.56163 5.73489L6.56092 5.73301C6.25736 4.9195 6.04664 4.07431 5.93276 3.21352ZM5.08797 0.833335C6.34086 0.823226 7.40806 1.74232 7.58347 2.98337L7.58452 2.99104C7.68178 3.72847 7.86212 4.45255 8.12209 5.14946C8.46497 6.0628 8.24523 7.09221 7.55921 7.78595L7.55594 7.78927L6.95835 8.38683C7.93823 9.92404 9.24263 11.2284 10.7798 12.2083L11.3807 11.6074C12.0744 10.9214 13.1039 10.7017 14.0172 11.0446C14.7141 11.3046 15.4382 11.4849 16.1756 11.5822L16.1831 11.5832C17.4363 11.76 18.3591 12.8452 18.3333 14.1093V16.5983C18.3357 17.3016 18.0417 17.9735 17.5234 18.4489C17.0047 18.9248 16.3094 19.16 15.6083 19.0966C15.6033 19.0962 15.5983 19.0957 15.5933 19.0951C12.9007 18.8026 10.3142 17.8828 8.04146 16.4096C5.92718 15.0654 4.13442 13.2726 2.79028 11.1583C1.31193 8.87523 0.391892 6.2761 0.104663 3.57133L0.103386 3.55833C0.0402275 2.85943 0.273726 2.16615 0.746843 1.64786C1.21996 1.12957 1.88913 0.833996 2.59089 0.833335L5.08797 0.833335Z" fill="#90979C"/>
</svg>
