<svg width="16" height="18" viewBox="0 0 16 18" fill="none" xmlns="http://www.w3.org/2000/svg">
<path fill-rule="evenodd" clip-rule="evenodd" d="M0.5 14.8333C0.5 12.5322 2.36548 10.6667 4.66667 10.6667H11.3333C13.6345 10.6667 15.5 12.5322 15.5 14.8333V16.5C15.5 16.9602 15.1269 17.3333 14.6667 17.3333C14.2064 17.3333 13.8333 16.9602 13.8333 16.5V14.8333C13.8333 13.4526 12.714 12.3333 11.3333 12.3333H4.66667C3.28595 12.3333 2.16667 13.4526 2.16667 14.8333V16.5C2.16667 16.9602 1.79357 17.3333 1.33333 17.3333C0.873096 17.3333 0.5 16.9602 0.5 16.5V14.8333Z" fill="#90979C"/>
<path fill-rule="evenodd" clip-rule="evenodd" d="M3.83333 4.83334C3.83333 2.53215 5.69881 0.666672 8 0.666672C10.3012 0.666672 12.1667 2.53215 12.1667 4.83334C12.1667 7.13453 10.3012 9.00001 8 9.00001C5.69881 9.00001 3.83333 7.13453 3.83333 4.83334ZM8 2.33334C6.61929 2.33334 5.5 3.45263 5.5 4.83334C5.5 6.21405 6.61929 7.33334 8 7.33334C9.38071 7.33334 10.5 6.21405 10.5 4.83334C10.5 3.45263 9.38071 2.33334 8 2.33334Z" fill="#90979C"/>
</svg>
