<svg width="113" height="20" viewBox="0 0 113 20" fill="none" xmlns="http://www.w3.org/2000/svg">
<path d="M19.0509 6.90581H13.4468L11.7152 1.57682C11.0329 -0.525608 9.92672 -0.525608 9.24437 1.57682L7.51276 6.90581H1.90919C-0.299681 6.90581 -0.64231 7.95751 1.14568 9.2561L5.67811 12.5487L3.94698 17.8787C3.26464 19.9792 4.15985 20.6304 5.94736 19.3309L10.4798 16.0382L15.0132 19.3309C16.8007 20.6304 17.6959 19.9792 17.0136 17.8787L15.2815 12.5487L19.8139 9.2561C21.6024 7.95751 21.2597 6.90581 19.0509 6.90581Z" fill="#FFC82C"/>
<path d="M42.0509 6.90581H36.4468L34.7152 1.57682C34.0329 -0.525608 32.9267 -0.525608 32.2444 1.57682L30.5128 6.90581H24.9092C22.7003 6.90581 22.3577 7.95751 24.1457 9.2561L28.6781 12.5487L26.947 17.8787C26.2646 19.9792 27.1598 20.6304 28.9474 19.3309L33.4798 16.0382L38.0132 19.3309C39.8007 20.6304 40.6959 19.9792 40.0136 17.8787L38.2815 12.5487L42.8139 9.2561C44.6024 7.95751 44.2597 6.90581 42.0509 6.90581Z" fill="#FFC82C"/>
<path d="M65.0509 6.90581H59.4468L57.7152 1.57682C57.0329 -0.525608 55.9267 -0.525608 55.2444 1.57682L53.5128 6.90581H47.9092C45.7003 6.90581 45.3577 7.95751 47.1457 9.2561L51.6781 12.5487L49.947 17.8787C49.2646 19.9792 50.1598 20.6304 51.9474 19.3309L56.4798 16.0382L61.0132 19.3309C62.8007 20.6304 63.6959 19.9792 63.0136 17.8787L61.2815 12.5487L65.8139 9.2561C67.6024 7.95751 67.2597 6.90581 65.0509 6.90581Z" fill="#FFC82C"/>
<path d="M88.0509 6.90581H82.4468L80.7152 1.57682C80.0329 -0.525608 78.9267 -0.525608 78.2444 1.57682L76.5128 6.90581H70.9092C68.7003 6.90581 68.3577 7.95751 70.1457 9.2561L74.6781 12.5487L72.947 17.8787C72.2646 19.9792 73.1598 20.6304 74.9474 19.3309L79.4798 16.0382L84.0132 19.3309C85.8007 20.6304 86.6959 19.9792 86.0136 17.8787L84.2815 12.5487L88.8139 9.2561C90.6024 7.95751 90.2597 6.90581 88.0509 6.90581Z" fill="#FFC82C"/>
<path d="M104.734 7.13758L104.902 7.65581H105.447H111.051C111.555 7.65581 111.89 7.71723 112.088 7.79206C112.132 7.80835 112.164 7.82329 112.187 7.83585C112.175 7.85971 112.158 7.89055 112.133 7.92903C112.017 8.10597 111.781 8.35304 111.373 8.64921L111.373 8.64931L106.841 11.942L106.4 12.2623L106.568 12.7805L108.3 18.1104C108.3 18.1104 108.3 18.1105 108.3 18.1105C108.456 18.5894 108.501 18.9276 108.491 19.1391C108.489 19.1854 108.485 19.2206 108.48 19.2467C108.453 19.2432 108.419 19.2365 108.374 19.2242C108.17 19.1683 107.862 19.0206 107.454 18.7242L107.454 18.724L102.921 15.4314L102.48 15.1112L102.039 15.4314L97.5065 18.7241L97.5063 18.7242C97.0987 19.0206 96.7909 19.1683 96.5867 19.2242C96.542 19.2365 96.5072 19.2432 96.4808 19.2467C96.476 19.2206 96.4717 19.1854 96.4695 19.1391C96.4595 18.9276 96.5047 18.5894 96.6603 18.1104L96.6603 18.1104L98.3914 12.7804L98.5597 12.2622L98.1189 11.942L93.5865 8.64931L93.5864 8.64926C93.1787 8.35311 92.9431 8.10606 92.8268 7.92913C92.8015 7.89063 92.7844 7.85978 92.7729 7.83592C92.7963 7.82334 92.8283 7.80838 92.8716 7.79206C93.0697 7.71723 93.4055 7.65581 93.9092 7.65581H99.5128H100.058L100.226 7.13758L101.958 1.8086L101.958 1.80835C102.113 1.32884 102.276 1.02824 102.408 0.862827C102.437 0.826934 102.461 0.801165 102.48 0.782847C102.499 0.801165 102.523 0.826934 102.552 0.862826C102.684 1.02824 102.846 1.32884 103.002 1.80835L103.002 1.8086L104.734 7.13758ZM112.244 7.87489C112.244 7.87495 112.242 7.8737 112.24 7.87097C112.243 7.87346 112.244 7.87483 112.244 7.87489ZM112.209 7.77623C112.209 7.77277 112.21 7.77096 112.21 7.77092C112.21 7.77088 112.21 7.77261 112.209 7.77623ZM108.46 19.3123C108.46 19.3122 108.461 19.3106 108.463 19.3077C108.461 19.311 108.46 19.3125 108.46 19.3123ZM108.543 19.2495C108.546 19.2485 108.548 19.2483 108.548 19.2484C108.548 19.2486 108.547 19.2491 108.543 19.2495ZM96.4124 19.2484C96.4125 19.2483 96.4143 19.2485 96.4176 19.2495C96.414 19.2491 96.4123 19.2486 96.4124 19.2484ZM96.4978 19.3077C96.4997 19.3106 96.5005 19.3122 96.5004 19.3123C96.5003 19.3125 96.4993 19.311 96.4978 19.3077ZM92.75 7.77105C92.7501 7.77109 92.7505 7.77289 92.7506 7.77636C92.7499 7.77274 92.7498 7.77101 92.75 7.77105ZM92.7199 7.87101C92.7177 7.87373 92.7164 7.87498 92.7163 7.87492C92.7161 7.87487 92.7172 7.8735 92.7199 7.87101ZM102.535 0.740754C102.535 0.740907 102.533 0.741802 102.53 0.74298C102.533 0.74119 102.535 0.740601 102.535 0.740754ZM102.43 0.74298C102.427 0.741802 102.425 0.740907 102.425 0.740754C102.425 0.740601 102.427 0.74119 102.43 0.74298Z" stroke="#E1E1E1" stroke-width="1.5"/>
</svg>
